<?xml version="1.0" encoding="UTF-8" standalone="no"?><!DOCTYPE svg PUBLIC "-//W3C//DTD SVG 1.1//EN" "http://www.w3.org/Graphics/SVG/1.1/DTD/svg11.dtd"><svg width="50px" height="50px" version="1.1" xmlns="http://www.w3.org/2000/svg" xmlns:xlink="http://www.w3.org/1999/xlink" xml:space="preserve" xmlns:serif="http://www.serif.com/" style="fill-rule:evenodd;clip-rule:evenodd;stroke-linecap:round;stroke-linejoin:round;stroke-miterlimit:1.5;"><path d="M33.024,21.806l0.858,0c0.17,0 0.297,0.007 0.38,0.022c0.084,0.014 0.158,0.043 0.224,0.088c0.066,0.045 0.121,0.105 0.165,0.18c0.044,0.074 0.066,0.158 0.066,0.251c0,0.1 -0.027,0.193 -0.082,0.277c-0.053,0.084 -0.127,0.147 -0.219,0.189c0.13,0.038 0.231,0.103 0.301,0.194c0.071,0.092 0.106,0.2 0.106,0.324c-0,0.098 -0.023,0.193 -0.069,0.286c-0.045,0.092 -0.107,0.165 -0.186,0.221c-0.078,0.055 -0.175,0.088 -0.29,0.101c-0.072,0.008 -0.247,0.013 -0.523,0.015l-0.731,-0l-0,-2.148Zm0.434,0.358l-0,0.496l0.284,0c0.169,0 0.274,-0.002 0.315,-0.007c0.074,-0.009 0.132,-0.034 0.174,-0.076c0.043,-0.043 0.064,-0.099 0.064,-0.169c0,-0.066 -0.018,-0.12 -0.055,-0.161c-0.036,-0.042 -0.091,-0.067 -0.163,-0.076c-0.043,-0.005 -0.166,-0.007 -0.37,-0.007l-0.249,-0Zm-0,0.854l-0,0.574l0.401,-0c0.156,-0 0.255,-0.005 0.297,-0.013c0.065,-0.012 0.117,-0.04 0.157,-0.085c0.041,-0.046 0.062,-0.107 0.062,-0.183c-0,-0.065 -0.016,-0.12 -0.047,-0.164c-0.032,-0.045 -0.077,-0.078 -0.137,-0.099c-0.058,-0.02 -0.186,-0.03 -0.383,-0.03l-0.35,-0Z" style="fill:#ba121f;fill-rule:nonzero;"/><path d="M37.126,23.954l-0.472,-0l-0.188,-0.488l-0.858,-0l-0.177,0.488l-0.46,-0l0.836,-2.148l0.459,0l0.86,2.148Zm-0.799,-0.85l-0.296,-0.797l-0.29,0.797l0.586,0Z" style="fill:#ba121f;fill-rule:nonzero;"/><path d="M38.318,23.954l-0.412,-0l0,-1.552c-0.15,0.141 -0.327,0.245 -0.531,0.312l-0,-0.373c0.107,-0.035 0.224,-0.102 0.35,-0.199c0.126,-0.099 0.212,-0.214 0.259,-0.345l0.334,0l-0,2.157Z" style="fill:#ba121f;fill-rule:nonzero;"/><path d="M40.323,23.571l0,0.383l-1.443,-0c0.016,-0.145 0.063,-0.282 0.141,-0.411c0.078,-0.129 0.232,-0.301 0.463,-0.515c0.185,-0.173 0.299,-0.29 0.341,-0.352c0.057,-0.085 0.085,-0.169 0.085,-0.252c0,-0.091 -0.025,-0.162 -0.074,-0.211c-0.049,-0.049 -0.117,-0.074 -0.204,-0.074c-0.086,-0 -0.154,0.026 -0.205,0.077c-0.051,0.052 -0.08,0.138 -0.088,0.258l-0.41,-0.041c0.024,-0.226 0.101,-0.389 0.23,-0.488c0.129,-0.098 0.29,-0.148 0.483,-0.148c0.212,0 0.379,0.058 0.5,0.172c0.121,0.114 0.181,0.256 0.181,0.426c0,0.097 -0.017,0.189 -0.052,0.277c-0.035,0.087 -0.089,0.178 -0.164,0.274c-0.05,0.063 -0.14,0.155 -0.27,0.274c-0.13,0.119 -0.212,0.198 -0.248,0.237c-0.034,0.039 -0.062,0.077 -0.083,0.114l0.817,0Z" style="fill:#ba121f;fill-rule:nonzero;"/><path d="M41.655,23.954l-0.412,-0l0,-1.552c-0.15,0.141 -0.327,0.245 -0.532,0.312l0,-0.373c0.108,-0.035 0.225,-0.102 0.351,-0.199c0.126,-0.099 0.212,-0.214 0.259,-0.345l0.334,0l-0,2.157Z" style="fill:#ba121f;fill-rule:nonzero;"/><path d="M42.364,23.954l-0,-2.148l1.472,0l0,0.363l-1.039,0l0,0.509l0.897,-0l-0,0.363l-0.897,0l0,0.913l-0.433,-0Z" style="fill:#ba121f;fill-rule:nonzero;"/><rect x="8.038" y="24.377" width="35.778" height="1.246" style="fill:#ba121f;"/><rect x="6.168" y="24.377" width="1.246" height="1.246" style="fill:#ba121f;"/><path d="M29.169,45.642c-2.765,-2.264 -4.052,-5.693 -4.576,-9.11" style="fill:none;stroke:#000;stroke-width:0.63px;stroke-dasharray:0.06,1.25,0.06,1.25,0.06,1.25;"/><path d="M24.593,36.532c-0.249,-1.623 -0.327,-3.243 -0.309,-4.734" style="fill:none;stroke:#000;stroke-width:0.47px;stroke-dasharray:0.05,0.94,0.05,0.94,0.05,0.94;"/><path d="M24.284,31.798c0.023,-1.94 0.207,-3.663 0.383,-4.889" style="fill:none;stroke:#000;stroke-width:0.31px;stroke-dasharray:0.03,1.25,0.03,1.25,0.03,1.25;"/><path d="M29.169,45.642c1.176,0.963 5.011,3.833 9.703,3.426" style="fill:none;stroke:#000;stroke-width:0.94px;stroke-dasharray:0.09,1.88,0.09,1.88,0.09,1.88;"/><path d="M38.872,49.068c2.811,-0.245 5.929,-1.666 8.967,-5.378" style="fill:none;stroke:#000;stroke-width:1.25px;stroke-dasharray:0.13,2.5,0.13,2.5,0.13,2.5;"/><path d="M20.84,4.358c2.765,2.264 4.052,5.693 4.576,9.11" style="fill:none;stroke:#000;stroke-width:0.63px;stroke-dasharray:0.06,1.25,0.06,1.25,0.06,1.25;"/><path d="M25.416,13.468c0.249,1.623 0.327,3.243 0.309,4.734" style="fill:none;stroke:#000;stroke-width:0.47px;stroke-dasharray:0.05,0.94,0.05,0.94,0.05,0.94;"/><path d="M25.725,18.202c-0.023,1.94 -0.207,3.663 -0.383,4.889" style="fill:none;stroke:#000;stroke-width:0.31px;stroke-dasharray:0.03,1.25,0.03,1.25,0.03,1.25;"/><path d="M20.84,4.358c-1.176,-0.963 -5.011,-3.833 -9.703,-3.426" style="fill:none;stroke:#000;stroke-width:0.94px;stroke-dasharray:0.09,1.88,0.09,1.88,0.09,1.88;"/><path d="M11.137,0.932c-2.81,0.245 -5.929,1.666 -8.967,5.378" style="fill:none;stroke:#000;stroke-width:1.25px;stroke-dasharray:0.13,2.5,0.13,2.5,0.13,2.5;"/></svg>