<?xml version="1.0" standalone="no"?><!DOCTYPE svg PUBLIC "-//W3C//DTD SVG 1.1//EN" "http://www.w3.org/Graphics/SVG/1.1/DTD/svg11.dtd"><svg t="1762997019975" class="icon" viewBox="0 0 1098 1024" version="1.1" xmlns="http://www.w3.org/2000/svg" p-id="5757" xmlns:xlink="http://www.w3.org/1999/xlink" width="214.453125" height="200"><path d="M994.91818 698.514952l-21.371392-9.162735c45.863606-106.807026 11.45966-178.511041-109.55335-233.087983 51.755719-184.952418-103.910902-359.094308-249.665791-452.768913a22.594754 22.594754 0 0 0-21.246559-1.572894 21.995556 21.995556 0 0 0-12.857788 16.752574c0 0.674098-0.199733 1.348195-0.249666 2.04726-3.86982 41.569354-3.969686 83.737907-10.760596 124.832896-17.127073 103.486471-85.984899 74.275573-181.65683 98.967519a171.445499 171.445499 0 0 0-133.346499 152.296133 338.746546 338.746546 0 0 0 3.170756 56.9987c-112.923838 26.115042-189.146804 125.132495-131.548906 234.236446-5.84218 3.070889-10.43603 6.091845-15.404379 8.114138a164.155258 164.155258 0 0 0 12.483289 313.9048c50.582289 15.429346 14.755248 14.205984 774.712952 13.007588 224.624313-0.499332 266.443333-251.538285 97.294759-324.565529z m-654.29914-135.718325a67.110165 67.110165 0 0 1 66.810565-66.261301 66.336201 66.336201 0 1 1-66.810565 66.261301z m370.329268 196.511945a169.298373 169.298373 0 0 1-325.813858-5.817213c-5.542581-22.145356 3.170756-33.929581 26.439607-34.15428 45.439174-0.374499 90.903315-0.149799 136.342489-0.1498h132.697369c30.034795 0.149799 38.498465 11.584493 30.334393 40.121293z m-20.79716-130.075877a66.461034 66.461034 0 1 1 67.684396-65.062906 66.585867 66.585867 0 0 1-67.684396 65.062906z" fill="#68768C" p-id="5758"></path></svg>